HIERARCHY
ROOT Hips
{
  OFFSET 52.3626 85.6996 7.07627
  CHANNELS 6 Xposition Yposition Zposition Zrotation Xrotation Yrotation
  JOINT spine
  {
    OFFSET 0 6.3926 0.367606
    CHANNELS 3 Zrotation Xrotation Yrotation
    JOINT spine1
    {
      OFFSET 0 9.17611 0
      CHANNELS 3 Zrotation Xrotation Yrotation
      JOINT spine2
      {
        OFFSET 0 8.79238 0
        CHANNELS 3 Zrotation Xrotation Yrotation
        JOINT Neck
        {
          OFFSET 0 22.5737 1.07624
          CHANNELS 3 Zrotation Xrotation Yrotation
          JOINT Head
          {
            OFFSET 0 6.82011 0
            CHANNELS 3 Zrotation Xrotation Yrotation
            End Site
            {
              OFFSET 0 16.5085 -5.44427
            }
          }
        }
        JOINT RightShoulder
        {
          OFFSET -3.70221 9.49509 -0.515508
          CHANNELS 3 Zrotation Xrotation Yrotation
          JOINT RightArm
          {
            OFFSET 0 12.4537 0
            CHANNELS 3 Zrotation Xrotation Yrotation
            JOINT RightArmRoll
            {
              OFFSET 0 6.28686 0
              CHANNELS 3 Zrotation Xrotation Yrotation
              JOINT RightForeArm
              {
                OFFSET 0 18.3114 0
                CHANNELS 3 Zrotation Xrotation Yrotation
                JOINT RightForeArmRoll
                {
                  OFFSET 0 7.05482 0
                  CHANNELS 3 Zrotation Xrotation Yrotation
                  JOINT RightHand
                  {
                    OFFSET 0 14.1575 0
                    CHANNELS 3 Zrotation Xrotation Yrotation
                    End Site
                    {
                      OFFSET 0 0 0
                    }
                  }
                }
              }
            }
          }
        }
        JOINT LeftShoulder
        {
          OFFSET 3.70221 9.49509 -0.515508
          CHANNELS 3 Zrotation Xrotation Yrotation
          JOINT LeftArm
          {
            OFFSET 0 12.4537 0
            CHANNELS 3 Zrotation Xrotation Yrotation
            JOINT LeftArmRoll
            {
              OFFSET 0 6.28685 0
              CHANNELS 3 Zrotation Xrotation Yrotation
              JOINT LeftForeArm
              {
                OFFSET 0 18.3114 0
                CHANNELS 3 Zrotation Xrotation Yrotation
                JOINT LeftForeArmRoll
                {
                  OFFSET 0 7.05482 0
                  CHANNELS 3 Zrotation Xrotation Yrotation
                  JOINT LeftHand
                  {
                    OFFSET 0 14.1575 0
                    CHANNELS 3 Zrotation Xrotation Yrotation
                    End Site
                    {
                      OFFSET 0 0 0
                    }
                  }
                }
              }
            }
          }
        }
      }
    }
  }
  JOINT RightUpLeg
  {
    OFFSET -5.66616 -1.03903 -0.87161
    CHANNELS 3 Zrotation Xrotation Yrotation
    JOINT RightUpLegRoll
    {
      OFFSET 0 16.6005 0
      CHANNELS 3 Zrotation Xrotation Yrotation
      JOINT RightLeg
      {
        OFFSET 0 -20.5572 0
        CHANNELS 3 Zrotation Xrotation Yrotation
        JOINT RightLegRoll
        {
          OFFSET 0 20.6244 0
          CHANNELS 3 Zrotation Xrotation Yrotation
          JOINT RightFoot
          {
            OFFSET 0 17.1664 0
            CHANNELS 3 Zrotation Xrotation Yrotation
            JOINT RightToeBase
            {
              OFFSET 0 14.3502 0
              CHANNELS 3 Zrotation Xrotation Yrotation
              End Site
              {
                OFFSET 0.00608252 6.94971 -0.801061
              }
            }
          }
        }
      }
    }
  }
  JOINT LeftUpLeg
  {
    OFFSET 5.66616 -1.03903 -0.87161
    CHANNELS 3 Zrotation Xrotation Yrotation
    JOINT LeftUpLegRoll
    {
      OFFSET 0 16.6006 0
      CHANNELS 3 Zrotation Xrotation Yrotation
      JOINT LeftLeg
      {
        OFFSET 0 20.5571 0
        CHANNELS 3 Zrotation Xrotation Yrotation
        JOINT LeftLegRoll
        {
          OFFSET 0 20.8151 0
          CHANNELS 3 Zrotation Xrotation Yrotation
          JOINT LeftFoot
          {
            OFFSET 0 16.9757 0
            CHANNELS 3 Zrotation Xrotation Yrotation
            JOINT LeftToeBase
            {
              OFFSET 0 14.3502 0
              CHANNELS 3 Zrotation Xrotation Yrotation
              End Site
              {
                OFFSET -0.0272592 6.94971 -0.80106
              }
            }
          }
        }
      }
    }
  }
}
MOTION
Frames: 5
Frame Time: 0.00208333
51.7893 85.5543 7.16316 -0.281877 -3.25709 -0.697222 -0.116185 -1.29093 -0.232542 -0.235292 1.4214 -0.4525 -0.230042 3.06644 -0.448821 -3.74377 12.2524 -0.993155 1.53125 13.4883 -2.25016 28.6062 -16.3333 -13.0547 75.5607 32.866 47.9837 -7.51393e-008 -1.91969e-006 -3.10216e-006 -9.3419 16.4761 1.78936 -3.54021e-007 1.6513e-006 -3.00902 8.02888 -4.95144 0.697673 -21.7045 -19.1351 17.4561 -74.1403 29.831 -33.1471 -3.35871e-005 -1.8352e-006 1.59404e-006 6.65237 15.4423 -1.14994 -1.13065e-005 2.87219e-006 3.00121 -8.02909 -4.95146 -0.697671 175.273 -1.72862 1.45134 180 7.01546e-015 178.919 176.131 5.48415 179.818 -1.26621e-006 1.71123e-006 0.0519164 -18.2611 67.5833 19.1947 8.13649 25.2327 -3.48774 -175.965 -1.54553 1.04743 4.54188e-006 -4.6773e-006 -1.0524 -0.985745 -7.2385 0.477096 1.23964e-006 -7.81905e-006 -0.0585819 18.2708 68.9275 -20.3022 -8.13702 25.2405 3.48897 
51.7864 85.5571 7.18908 -0.277909 -3.26207 -0.705068 -0.117001 -1.29005 -0.231812 -0.236933 1.42318 -0.450943 -0.231703 3.06822 -0.44725 -3.73296 12.2636 -0.995637 1.51264 13.4492 -2.24848 28.75 -16.2922 -12.9927 75.7118 32.7719 47.7385 -7.51394e-008 -1.91969e-006 -3.10216e-006 -9.28956 16.0691 1.72427 -3.54021e-007 1.6513e-006 -3.00902 8.02888 -4.95144 0.697673 -21.786 -19.0892 17.3817 -74.3014 29.6692 -32.6289 -3.35871e-005 -1.8352e-006 1.59404e-006 6.284 15.0108 -1.02257 -1.13065e-005 2.87219e-006 3.00121 -8.02909 -4.95146 -0.697671 175.266 -1.72875 1.45539 180 7.01546e-015 178.919 176.13 5.48775 179.818 -1.26621e-006 1.71123e-006 0.0519215 -18.2597 67.5814 19.1931 8.13649 25.2327 -3.48774 -175.972 -1.55246 1.05221 4.54188e-006 -4.6773e-006 -1.05227 -0.983548 -7.2365 0.47716 1.23964e-006 -7.81905e-006 -0.0585662 18.2753 68.9277 -20.3025 -8.13702 25.2405 3.48897 
51.731 85.5661 7.27511 -0.274889 -3.26787 -0.713276 -0.118062 -1.28898 -0.230958 -0.239074 1.42531 -0.449108 -0.233867 3.07036 -0.4454 -3.71581 12.2767 -0.999533 1.4914 13.4071 -2.24615 28.8992 -16.251 -12.9302 75.8584 32.6778 47.5039 -7.51394e-008 -1.91969e-006 -3.10216e-006 -9.2383 15.6754 1.66229 -3.54021e-007 1.6513e-006 -3.00901 8.02888 -4.95144 0.697673 -21.8613 -19.0418 17.3068 -74.4687 29.5018 -32.1001 -3.35871e-005 -1.8352e-006 1.59404e-006 5.90199 14.5881 -0.898413 -1.13065e-005 2.87219e-006 3.0012 -8.02909 -4.95146 -0.697671 175.261 -1.72969 1.45858 180 7.01546e-015 178.919 176.131 5.49158 179.818 -1.26621e-006 1.71123e-006 0.0519266 -18.2581 67.5793 19.1914 8.13649 25.2327 -3.48774 -175.979 -1.55961 1.05578 4.54188e-006 -4.6773e-006 -1.05212 -0.981654 -7.236 0.477274 1.23964e-006 -7.81905e-006 -0.0585471 18.2802 68.9287 -20.3036 -8.13702 25.2405 3.48897 
51.7418 85.5629 7.2443 -0.272729 -3.2744 -0.72182 -0.11933 -1.28776 -0.230006 -0.241636 1.42777 -0.447051 -0.236456 3.07281 -0.443325 -3.69318 12.2913 -1.00462 1.46791 13.3624 -2.24322 29.0534 -16.2096 -12.8671 76.001 32.5837 47.2784 -7.51393e-008 -1.91969e-006 -3.10216e-006 -9.18773 15.2934 1.60307 -3.54021e-007 1.6513e-006 -3.00901 8.02888 -4.95144 0.697673 -21.9315 -18.9931 17.2315 -74.6413 29.3292 -31.563 -3.35871e-005 -1.8352e-006 1.59404e-006 5.50829 14.1742 -0.777594 -1.13065e-005 2.87219e-006 3.0012 -8.02909 -4.95146 -0.697671 175.257 -1.73136 1.46101 180 7.01546e-015 178.919 176.131 5.49564 179.819 -1.26621e-006 1.71123e-006 0.0519317 -18.2566 67.5772 19.1896 8.13649 25.2327 -3.48774 -175.983 -1.56695 1.05828 4.54188e-006 -4.6773e-006 -1.05195 -0.980031 -7.23682 0.47743 1.23964e-006 -7.81905e-006 -0.0585257 18.2853 68.9304 -20.3053 -8.13702 25.2405 3.48897 
51.7346 85.5658 7.27297 -0.271339 -3.28154 -0.730672 -0.120769 -1.28639 -0.228979 -0.244541 1.43049 -0.444824 -0.239389 3.07554 -0.441078 -3.66594 12.307 -1.01067 1.44259 13.3157 -2.23976 29.2121 -16.168 -12.8035 76.1402 32.4898 47.0608 -7.51393e-008 -1.91969e-006 -3.10216e-006 -9.1375 14.9217 1.5463 -3.54021e-007 1.6513e-006 -3.00901 8.02888 -4.95144 0.697673 -21.9975 -18.9433 17.1558 -74.818 29.1517 -31.0196 -3.35871e-005 -1.8352e-006 1.59404e-006 5.10484 13.7689 -0.660255 -1.13065e-005 2.87219e-006 3.0012 -8.02909 -4.95146 -0.697671 175.255 -1.73365 1.46282 180 7.01546e-015 178.919 176.132 5.49985 179.819 -1.26621e-006 1.71123e-006 0.0519368 -18.2549 67.5751 19.1878 8.13649 25.2327 -3.48774 -175.987 -1.57444 1.05983 4.54188e-006 -4.6773e-006 -1.05176 -0.978646 -7.23875 0.477623 1.23964e-006 -7.81905e-006 -0.0585028 18.2906 68.9326 -20.3075 -8.13702 25.2405 3.48897 
